<?xml version="1.0" encoding="UTF-8" standalone="no"?>
<svg
   xmlns:dc="http://purl.org/dc/elements/1.1/"
   xmlns:cc="http://creativecommons.org/ns#"
   xmlns:rdf="http://www.w3.org/1999/02/22-rdf-syntax-ns#"
   xmlns:svg="http://www.w3.org/2000/svg"
   xmlns="http://www.w3.org/2000/svg"
   xmlns:sodipodi="http://sodipodi.sourceforge.net/DTD/sodipodi-0.dtd"
   xmlns:inkscape="http://www.inkscape.org/namespaces/inkscape"
   width="145.52089mm"
   height="33.084099mm"
   viewBox="0 0 145.52089 33.084099"
   version="1.1"
   id="svg220584"
   inkscape:version="1.0.1 (3bc2e813f5, 2020-09-07)"
   sodipodi:docname="Japan Air.svg">
  <defs
     id="defs220578" />
  <sodipodi:namedview
     id="base"
     pagecolor="#ffffff"
     bordercolor="#666666"
     borderopacity="1.0"
     inkscape:pageopacity="0.0"
     inkscape:pageshadow="2"
     inkscape:zoom="0.35"
     inkscape:cx="658.25128"
     inkscape:cy="137.3346"
     inkscape:document-units="mm"
     inkscape:current-layer="layer1"
     inkscape:document-rotation="0"
     showgrid="false"
     inkscape:window-width="1267"
     inkscape:window-height="728"
     inkscape:window-x="26"
     inkscape:window-y="0"
     inkscape:window-maximized="0" />
  <metadata
     id="metadata220581">
    <rdf:RDF>
      <cc:Work
         rdf:about="">
        <dc:format>image/svg+xml</dc:format>
        <dc:type
           rdf:resource="http://purl.org/dc/dcmitype/StillImage" />
        <dc:title></dc:title>
      </cc:Work>
    </rdf:RDF>
  </metadata>
  <g
     inkscape:label="Layer 1"
     inkscape:groupmode="layer"
     id="layer1"
     transform="translate(-77.191848,-111.83022)">
    <path
       style="fill:#e60011;fill-opacity:1;fill-rule:nonzero;stroke:none;stroke-width:1.8982"
       d="m 93.977901,138.61836 h 1.26794 l -0.05165,-1.51263 z m 0,0"
       id="path186356" />
    <path
       style="fill:#e60011;fill-opacity:1;fill-rule:nonzero;stroke:none;stroke-width:1.8982"
       d="m 101.20738,130.46942 c -3.381165,3.29219 -8.430682,1.18639 -7.919062,-2.85469 0.393008,-3.12163 4.219057,-6.22108 7.110842,-7.90423 0.008,-0.005 0.008,-0.0269 0,-0.0377 -0.37815,-0.35567 -1.164121,-1.17892 -1.675763,-1.78694 -1.393979,-1.69062 -3.848293,-1.75734 -5.309014,0.0963 l -8.319452,0.77112 c -0.03713,0 -0.03713,0.043 0,0.0538 l 8.912639,0.51171 c 1.586781,0.0888 2.098401,1.52743 0.578358,2.68417 -5.664948,4.29323 -6.673366,8.83106 -5.412845,12.43469 0.0075,0.0215 -0.02206,0.0377 -0.03713,0.0161 -0.52645,-0.73403 -0.912022,-1.63864 -1.127052,-2.58032 -2.713816,-1.70542 -4.923458,-4.96054 -4.923458,-8.97941 0,-5.84287 4.760347,-10.65512 10.647723,-10.65512 5.879957,0 10.647704,4.81225 10.647704,10.65512 0,3.15876 -1.38657,5.83551 -3.17354,7.578 m 2.08356,9.98775 h -5.116239 l 1.816635,-4.73062 h 2.254114 l -1.43847,3.72964 h 2.86954 z m -7.978363,0 -0.03713,-0.93426 h -2.039079 l -0.748899,0.93426 h -1.861128 l 3.781577,-4.38211 c 0.177887,-0.2077 0.444879,-0.34868 0.689578,-0.34868 h 2.016834 l 0.452304,4.73063 z m -7.718856,0.1555 c -0.608016,0 -1.134461,-0.0592 -1.571941,-0.1555 l 0.385583,-1.0084 c 1.030667,0.12591 1.92045,0.0377 2.261534,-0.86754 l 1.097387,-2.85468 h 2.254114 l -1.208602,3.1439 c -0.615436,1.609 -2.135474,1.74244 -3.218054,1.74244 m 22.607858,-10.78114 c 0.11122,-1.0529 0.0816,-2.55073 -0.0816,-3.66293 0,-0.0215 -0.0221,-0.0215 -0.0296,0 -0.34108,1.609 -1.37917,3.78895 -3.63329,5.56851 -0.0151,0.0215 -0.0371,-0.005 -0.0221,-0.0215 1.97236,-2.11323 3.15131,-4.71583 3.33669,-7.39258 -0.37078,-1.47555 -0.9491,-2.89918 -1.68317,-4.15972 -0.008,-0.0162 -0.0221,-0.005 -0.0221,0.005 0.40038,2.70645 -0.23729,6.28038 -2.86212,9.17956 -0.0151,0.0215 -0.0447,0 -0.0296,-0.0215 2.26152,-3.25507 2.84729,-7.21458 1.86112,-10.78114 -3.01783,-4.07073 -7.852325,-6.71783 -13.302227,-6.71783 -5.457322,0 -10.29181,2.6471 -13.309642,6.71783 -0.986168,3.56656 -0.400433,7.52607 1.861128,10.78119 0.01507,0.0215 -0.0075,0.043 -0.02959,0.0215 -2.617426,-2.89924 -3.262531,-6.47317 -2.862125,-9.17962 0.0075,-0.0162 -0.01507,-0.0215 -0.02206,-0.005 -0.72665,1.26054 -1.305013,2.68417 -1.683171,4.15972 0.185474,2.67675 1.364331,5.27935 3.344098,7.39258 0.01507,0.0161 -0.01507,0.043 -0.02959,0.0215 -2.254114,-1.77956 -3.299604,-3.95951 -3.63329,-5.56851 -0.0075,-0.0215 -0.02959,-0.0215 -0.02959,0 -0.163036,1.1122 -0.192791,2.60998 -0.08163,3.66293 0.570937,1.77957 1.786981,3.26992 3.025252,4.34509 0.02206,0.0215 0,0.043 -0.02206,0.0377 -1.38658,-0.86753 -2.165128,-1.71285 -2.691594,-2.45436 -0.01507,-0.0215 -0.02959,-0.0162 -0.02959,0.005 1.534867,7.4297 8.185984,13.14655 16.194016,13.14655 8.000605,0 14.659125,-5.71685 16.186595,-13.14655 0.008,-0.0215 -0.0151,-0.0323 -0.0221,-0.005 -0.52645,0.74151 -1.30501,1.58683 -2.69899,2.45436 -0.0221,0.005 -0.0447,-0.0161 -0.0221,-0.0377 1.24572,-1.07517 2.46175,-2.56552 3.02528,-4.34509"
       id="path186358" />
    <path
       style="fill:#000000;fill-opacity:1;fill-rule:nonzero;stroke:none;stroke-width:1.8982"
       d="m 183.77163,125.54595 h -3.64069 l -3.05491,-5.58336 -2.14289,5.58336 h -3.64069 l 3.63329,-9.45388 h 4.22645 l 2.699,4.96792 1.90561,-4.96792 h 3.6407 z m 0,0"
       id="path186360" />
    <path
       style="fill:#000000;fill-opacity:1;fill-rule:nonzero;stroke:none;stroke-width:1.8982"
       d="m 129.06494,122.37983 c -1.23087,3.21062 -4.27837,3.48498 -6.4435,3.48498 -1.20862,0 -2.26153,-0.12591 -3.12906,-0.31908 l 0.77114,-2.00937 c 2.06133,0.24482 3.82607,0.0667 4.51564,-1.7425 l 2.1948,-5.702 h 4.5008 l -2.40982,6.28775"
       id="path186362" />
    <path
       style="fill:#000000;fill-opacity:1;fill-rule:nonzero;stroke:none;stroke-width:1.8982"
       d="m 154.91308,119.10248 c -0.26694,0.68959 -1.11965,1.20119 -1.92787,1.20119 H 150.479 l 0.91943,-2.39496 h 2.50623 c 0.82304,0 1.27534,0.50418 1.00842,1.19377 m -0.31884,-3.00303 h -7.00703 l -3.62585,9.4465 h 4.50822 l 1.31242,-3.43306 h 2.50621 c 4.16715,0 6.40642,-1.1122 7.13309,-3.01041 0.72665,-1.89078 -0.65993,-3.00303 -4.82706,-3.00303"
       id="path186364" />
    <path
       style="fill:#000000;fill-opacity:1;fill-rule:nonzero;stroke:none;stroke-width:1.8982"
       d="m 135.64189,121.86823 2.42467,-3.01784 0.11122,3.01784 z m 6.28039,-5.77616 h -4.03368 c -0.48937,0 -1.02326,0.28895 -1.38658,0.70439 l -7.5483,8.74949 h 3.72224 l 1.50521,-1.86108 h 4.05592 l 0.0742,1.86108 h 4.50822 l -0.89718,-9.45388"
       id="path186366" />
    <path
       style="fill:#000000;fill-opacity:1;fill-rule:nonzero;stroke:none;stroke-width:1.8982"
       d="m 162.973,121.86823 2.42465,-3.01784 0.11122,3.01784 z m 6.28037,-5.77616 h -4.03368 c -0.48937,0 -1.02324,0.28895 -1.38656,0.70439 l -7.5409,8.74949 h 3.72226 l 1.49037,-1.86108 h 4.07075 l 0.0742,1.86108 h 4.5008 l -0.89719,-9.45388"
       id="path186368" />
    <path
       style="fill:#000000;fill-opacity:1;fill-rule:nonzero;stroke:none;stroke-width:1.8982"
       d="m 221.48351,137.69148 c -0.94911,2.47658 -4.23388,3.24027 -7.77816,3.24027 -3.54428,0 -5.82065,-0.77111 -5.28678,-3.24027 h 4.50082 c -0.11138,0.65994 0.28195,1.08255 1.61642,1.08255 1.33469,0 2.18737,-0.42992 2.43951,-1.08255 0.62282,-1.61643 -8.28981,-0.0377 -6.86618,-3.72965 0.78597,-2.06873 3.91507,-3.04005 7.4445,-3.04005 3.52949,0 5.53149,0.75626 5.10141,3.04005 h -4.41181 c 0.0667,-0.61545 -0.11838,-1.07518 -1.44591,-1.07518 -1.32727,0 -2.03908,0.46705 -2.27637,1.07518 -0.63024,1.64612 8.37881,0.0431 6.96255,3.72965"
       id="path186370" />
    <path
       style="fill:#000000;fill-opacity:1;fill-rule:nonzero;stroke:none;stroke-width:1.8982"
       d="m 142.6341,140.65001 h -4.50822 l 3.63327,-9.4465 h 4.5008 z m 0,0"
       id="path186372" />
    <path
       style="fill:#000000;fill-opacity:1;fill-rule:nonzero;stroke:none;stroke-width:1.8982"
       d="m 176.72013,140.65001 h -4.50823 l 3.62585,-9.4465 h 4.50081 z m 0,0"
       id="path186374" />
    <path
       style="fill:#000000;fill-opacity:1;fill-rule:nonzero;stroke:none;stroke-width:1.8982"
       d="m 205.74183,140.65001 h -10.95174 l 3.62587,-9.4465 h 10.95172 l -0.69702,1.81664 h -6.45089 l -0.7341,1.90558 h 5.36835 l -0.69696,1.80927 h -5.36092 l -0.7341,1.91301 h 6.44347 z m 0,0"
       id="path186376" />
    <path
       style="fill:#000000;fill-opacity:1;fill-rule:nonzero;stroke:none;stroke-width:1.8982"
       d="m 191.98728,140.65001 h -3.64068 l -3.05493,-5.57593 -2.14288,5.57593 h -3.63328 l 3.62586,-9.4465 h 4.22646 l 2.69901,4.96791 1.91302,-4.96791 h 3.63327 z m 0,0"
       id="path186378" />
    <path
       style="fill:#000000;fill-opacity:1;fill-rule:nonzero;stroke:none;stroke-width:1.8982"
       d="m 156.3812,134.21392 c -0.26693,0.68959 -1.11221,1.19382 -1.93527,1.19382 h -2.49879 l 0.91943,-2.38759 h 2.50621 c 0.81564,0 1.27537,0.50417 1.00842,1.19377 m -0.3188,-3.01041 h -7.00704 l -3.62586,9.4465 h 4.50823 l 1.31243,-3.42563 h 1.36433 l 0.88236,3.42563 h 4.92345 l -1.2012,-3.76672 c 1.99459,-0.46704 3.18097,-1.38661 3.67034,-2.66937 0.72667,-1.89079 -0.6599,-3.01041 -4.82704,-3.01041"
       id="path186380" />
    <path
       style="fill:#000000;fill-opacity:1;fill-rule:nonzero;stroke:none;stroke-width:1.8982"
       d="m 165.92412,138.64801 2.86954,-7.4445 h -4.50082 l -3.62585,9.4465 h 10.22508 l 0.77113,-2.002 z m 0,0"
       id="path186382" />
    <path
       style="fill:#000000;fill-opacity:1;fill-rule:nonzero;stroke:none;stroke-width:1.8982"
       d="m 129.80641,136.97966 2.42467,-3.01783 0.11122,3.01783 z m 6.27296,-5.77615 h -4.02625 c -0.48938,0 -1.02324,0.28895 -1.38658,0.70439 l -7.5483,8.74211 h 3.72223 l 1.49782,-1.85371 h 4.07074 l 0.0668,1.85371 h 4.50822 l -0.90461,-9.4465"
       id="path186384" />
  </g>
</svg>
